<svg width="282" height="454" viewBox="0 0 282 454" fill="none" xmlns="http://www.w3.org/2000/svg">
<path d="M281.9 261.977C281.9 183.846 215.813 120.852 135.464 123.886C62.6205 126.595 3.22915 184.671 0.196529 256.116C-2.05542 309.598 26.6794 356.688 70.2471 381.544C91.3854 393.589 108.861 394.885 120.451 416.001L140.988 453.432L161.526 416.001C173.176 394.767 190.831 393.53 212.06 381.367C253.856 357.395 281.93 312.926 281.93 262.006L281.9 261.977Z" fill="#1C2C3F"/>
<path d="M269.755 262.948C269.755 264.204 269.717 265.46 269.679 266.715C269.679 267.092 269.641 267.431 269.641 267.808V268.486C269.603 268.863 269.603 269.239 269.565 269.616C269.488 270.978 269.412 272.297 269.298 273.615C268.14 287.274 264.733 300.655 259.212 313.231C259.059 313.645 258.868 314.097 258.678 314.487C251.006 331.467 239.645 346.574 225.4 358.736C224.98 359.112 224.598 359.451 224.179 359.79C223.759 360.13 223.18 360.582 222.684 360.996C221.412 362.019 220.14 362.999 218.869 363.94C200.03 378.135 177.539 386.835 153.947 389.053C152.726 389.166 151.467 389.279 150.239 389.355C149.82 389.392 149.4 389.43 148.968 389.43C146.481 389.618 143.963 389.656 141.4 389.656C126.751 389.685 112.207 387.213 98.4113 382.348C95.963 381.52 93.5592 380.615 91.2254 379.598C88.6817 378.537 86.1379 377.407 83.7023 376.127C79.2155 373.949 74.8739 371.492 70.704 368.768C69.0633 367.714 67.4226 366.584 65.8519 365.41C50.0144 354.014 37.0228 339.197 27.868 322.09C27.5627 321.562 27.232 320.997 26.9904 320.47C26.7487 319.942 26.4944 319.484 26.2654 318.994C24.5178 315.587 22.9616 312.086 21.6041 308.51C21.2607 307.681 20.9682 306.846 20.6502 305.998C20.4976 305.622 20.3831 305.283 20.2686 304.906C19.4229 302.614 18.6597 300.373 18.0111 298.031L17.1335 294.785L17.0954 294.748L17.0572 294.522L16.5993 292.864V292.827C16.1796 291.094 15.7981 289.317 15.4483 287.547C15.1049 285.921 14.8124 284.301 14.5707 282.643C13.6551 276.937 13.1451 271.174 13.0445 265.397C13 264.832 13 264.317 13 263.777V262.948C13 192.927 70.4687 136.19 141.394 136.19C208.694 136.19 263.873 187.308 269.279 252.388C269.355 252.953 269.393 253.525 269.431 254.09C269.469 254.655 269.507 255.182 269.546 255.747C269.546 255.973 269.584 256.199 269.584 256.425V256.463C269.717 258.61 269.755 260.757 269.755 262.948Z" fill="#BEDADA"/>
<path d="M175.161 43.266C175.695 45.4686 176.442 47.6153 177.393 49.6761C179.149 53.7067 180.058 54.0708 180.058 54.0708C181.889 52.2564 189.107 46.4428 193.355 42.2426L207.721 28.0035L211.931 23.8599L213.838 21.9764C214.697 21.1288 215.053 19.3019 215.924 18.4857C217.323 17.1672 219.314 18.1655 221.012 17.9395C222.058 17.8327 223.062 17.4763 223.937 16.901C224.812 16.3256 225.532 15.5487 226.036 14.6371C226.246 14.7301 226.428 14.8779 226.56 15.0648C226.692 15.2518 226.77 15.4707 226.786 15.6981C226.828 16.1489 226.944 16.59 227.129 17.004C227.594 17.7574 228.522 18.178 229.279 18.5861C230.169 19.0633 229.629 18.2973 230.347 19.0005L232.605 21.2167C232.605 21.2167 235.842 22.4724 239.422 18.0336C243.002 13.5949 241.132 11.3661 241.132 11.3661C239.905 10.3553 239.791 10.7383 238.589 9.73379L232.109 4.39728C230.735 3.27347 228.528 0.71822 226.602 1.22676C225.783 1.51442 225.01 1.9161 224.306 2.41963C223.555 2.8591 223.301 3.04745 222.462 2.80888C221.47 2.55775 220.732 1.65368 219.721 1.50928C218.71 1.36488 217.629 2.13711 217.012 3.01606C216.395 3.89502 217.648 4.17126 216.789 4.81164C215.974 5.34353 215.082 5.74999 214.144 6.01707C213.209 6.33726 211.982 6.53816 211.244 7.22877C210.284 8.12656 209.457 9.23153 208.509 10.167L205.571 13.0675L198.894 19.666L184.37 34.0369C180.319 38.0424 176.847 41.5834 175.161 43.266Z" fill="#F3E39C"/>
<path d="M180.338 55.4332L179.613 55.1507C178.481 54.7112 177.177 52.1811 176.287 50.1281C175.303 47.9902 174.53 45.7637 173.979 43.4794L173.858 42.8516L174.303 42.4058C174.977 41.778 175.918 40.7986 177.063 39.6497C178.824 37.8729 181.069 35.6128 183.53 33.1831L207.695 9.3257C208.102 8.91761 208.49 8.47813 208.897 8.01354C209.304 7.54895 209.889 6.88973 210.449 6.36864C211.225 5.74127 212.144 5.31026 213.126 5.11299C213.355 5.05021 213.578 4.98115 213.762 4.91208C214.448 4.70674 215.11 4.43328 215.74 4.09591C215.642 3.80536 215.618 3.49571 215.669 3.19378C215.72 2.89185 215.845 2.60673 216.032 2.36311C217.05 0.900279 218.493 0.146888 219.899 0.354071C220.59 0.49204 221.241 0.779344 221.807 1.19536C222.09 1.40073 222.403 1.56363 222.735 1.67878C223.072 1.76668 223.072 1.76668 223.619 1.44021C223.816 1.3272 223.969 1.23303 224.115 1.13885C224.786 0.689947 225.521 0.342878 226.296 0.109219C228.484 -0.474659 230.538 1.40882 232.02 2.77748C232.318 3.05372 232.598 3.30485 232.853 3.51203L239.32 8.79205C239.632 9.05989 239.981 9.28192 240.357 9.45126C240.914 9.70126 241.432 10.029 241.896 10.4244L242.048 10.5751C242.15 10.7006 244.484 13.5886 240.357 18.7368C236.229 23.885 232.331 22.3405 232.166 22.2777L231.937 22.1898L229.59 19.8857C229.28 19.8442 228.982 19.7417 228.713 19.5844L228.458 19.4525C227.515 19.0512 226.702 18.3992 226.112 17.569C225.978 17.3496 225.875 17.113 225.807 16.8659C224.548 18.0941 222.909 18.87 221.152 19.0696C220.449 19.1434 219.739 19.1286 219.04 19.0256C217.896 18.9 217.228 18.8498 216.738 19.3081C216.399 19.7343 216.131 20.2112 215.943 20.7207C215.646 21.4799 215.216 22.1813 214.671 22.7926L194.176 43.0713C191.587 45.6328 187.943 48.7218 185.018 51.2331C183.174 52.8152 181.578 54.1776 180.885 54.8682L180.338 55.4332ZM176.433 43.6301C176.962 45.5378 177.636 47.4035 178.449 49.2115C178.902 50.3134 179.45 51.3743 180.09 52.382C180.923 51.6286 182.087 50.6366 183.441 49.4751C186.335 46.9638 189.94 43.9063 192.471 41.4013L212.967 21.1225C213.293 20.7013 213.557 20.2362 213.749 19.7413C214.052 18.9417 214.51 18.2081 215.098 17.5816C216.414 16.326 218.016 16.5269 219.301 16.665C219.808 16.743 220.322 16.7641 220.834 16.7278C221.688 16.6454 222.509 16.3596 223.227 15.8948C223.945 15.4301 224.538 14.8003 224.954 14.0595L225.387 13.2622L226.277 13.4693C226.717 13.5993 227.109 13.8533 227.405 14.2002C227.701 14.547 227.888 14.9716 227.943 15.4219C227.975 15.56 228.001 15.7044 228.02 15.8488C228.038 16.0248 228.078 16.1978 228.14 16.3636C228.529 16.8052 229.017 17.1513 229.565 17.3744L229.768 17.4812C230.035 17.4769 230.299 17.5309 230.542 17.6395C230.785 17.748 231.001 17.9084 231.174 18.109L233.215 20.1117C233.851 20.2373 235.988 20.3503 238.481 17.2489C240.973 14.1474 240.388 12.4585 240.229 12.1007C239.958 11.8786 239.656 11.6947 239.333 11.5545C238.775 11.3045 238.257 10.9768 237.794 10.5813L231.352 5.32017C231.072 5.09415 230.76 4.80535 230.423 4.504C229.457 3.61876 227.835 2.13082 226.913 2.38195C226.373 2.55947 225.863 2.81551 225.4 3.14162L224.904 3.44297C223.988 3.9829 223.39 4.28426 222.15 3.96407C221.57 3.79631 221.023 3.53081 220.535 3.17929C220.236 2.95503 219.898 2.78884 219.536 2.68958C219.04 2.61424 218.474 3.06 218.08 3.56226C218.286 3.93623 218.338 4.3737 218.227 4.78474C218.116 5.19577 217.849 5.54914 217.482 5.7722C216.573 6.38061 215.573 6.84456 214.519 7.14714C214.277 7.22876 214.016 7.3041 213.749 7.37944C213.138 7.50382 212.558 7.74944 212.045 8.10144C211.558 8.57407 211.095 9.07068 210.659 9.58938C210.239 10.0603 209.807 10.5562 209.342 11.0145L185.177 34.8719C182.792 37.289 180.522 39.5555 178.761 41.3197L176.433 43.6301Z" fill="#0D223F"/>
<path d="M216.268 16.5331C216.071 16.5336 215.879 16.472 215.721 16.3573C214.608 15.5304 213.672 14.4946 212.966 13.3094C212.26 12.1243 211.798 10.8132 211.606 9.45126C211.573 9.21315 211.638 8.97189 211.785 8.78057C211.932 8.58924 212.151 8.46351 212.392 8.43104C212.633 8.39857 212.877 8.46202 213.071 8.60743C213.265 8.75284 213.392 8.9683 213.425 9.20641C213.754 11.4595 214.976 13.4917 216.821 14.8568C217.01 15.0022 217.135 15.2146 217.168 15.449C217.201 15.6834 217.14 15.9214 216.999 16.1125C216.922 16.2366 216.814 16.34 216.687 16.4134C216.559 16.4867 216.415 16.5279 216.268 16.5331V16.5331Z" fill="#ECB580"/>
<path d="M221.584 14.3609C221.445 14.3607 221.307 14.3296 221.182 14.2698C221.056 14.21 220.946 14.1231 220.859 14.0156C219.964 12.8646 219.335 11.5342 219.017 10.1176C218.698 8.70112 218.697 7.23291 219.015 5.81616C219.042 5.70023 219.092 5.5907 219.162 5.49384C219.232 5.39699 219.32 5.31471 219.422 5.25172C219.525 5.18873 219.638 5.14627 219.757 5.12677C219.876 5.10728 219.998 5.11113 220.115 5.1381C220.232 5.16402 220.343 5.2126 220.441 5.28102C220.539 5.34944 220.623 5.43636 220.686 5.53675C220.75 5.63715 220.793 5.74904 220.813 5.86596C220.833 5.98287 220.829 6.10251 220.802 6.21796C220.543 7.37349 220.544 8.57099 220.804 9.72619C221.065 10.8814 221.578 11.9662 222.309 12.9043C222.454 13.0933 222.517 13.3307 222.486 13.5655C222.455 13.8003 222.332 14.0137 222.144 14.16C221.987 14.2893 221.789 14.3603 221.584 14.3609V14.3609Z" fill="#ECB580"/>
<path d="M226.144 12.1195C225.949 12.1217 225.758 12.0618 225.6 11.9488C225.442 11.8357 225.325 11.6755 225.266 11.4917C224.837 10.0573 224.837 8.53128 225.266 7.09691C225.301 6.98313 225.358 6.87721 225.434 6.78518C225.51 6.69316 225.604 6.61684 225.71 6.56058C225.816 6.50433 225.932 6.46923 226.052 6.4573C226.171 6.44537 226.292 6.45684 226.408 6.49106C226.523 6.52527 226.63 6.58156 226.723 6.65671C226.817 6.73187 226.894 6.82441 226.951 6.92905C227.008 7.0337 227.043 7.1484 227.055 7.26661C227.068 7.38482 227.056 7.50423 227.021 7.618C226.69 8.72023 226.69 9.89348 227.021 10.9957C227.088 11.228 227.058 11.4769 226.939 11.6876C226.82 11.8984 226.621 12.0537 226.385 12.1195C226.305 12.1296 226.224 12.1296 226.144 12.1195V12.1195Z" fill="#ECB580"/>
<path d="M16.593 292.864V292.827C16.5883 292.762 16.5755 292.699 16.5548 292.638C16.5548 292.638 22.6661 297.316 23.8553 298.483C26.3354 300.938 28.8219 303.393 31.2638 305.841C37.9299 312.415 44.2569 319.315 50.2208 326.516C50.9458 327.382 51.8234 328.324 52.968 328.211C53.6862 328.046 54.3311 327.656 54.8058 327.1L55.1493 326.761C55.0811 326.903 55.0046 327.041 54.9203 327.175C53.7375 328.952 51.1747 329.366 49.1143 328.763C47.0539 328.161 45.3305 326.723 43.7216 325.291C38.2972 320.652 33.0635 316.54 28.0969 312.427C25.5532 310.311 23.0095 308.202 20.6439 305.973" fill="#42A4C6"/>
<path d="M56.243 327.307C56.1285 327.57 56.0141 327.721 55.9378 327.872C55.3684 328.643 54.6145 329.262 53.7434 329.675C52.8723 330.088 51.9111 330.282 50.9457 330.239C50.2082 330.236 49.4745 330.134 48.7645 329.937C46.4752 329.259 44.6373 327.709 42.9203 326.17C39.5181 323.264 36.1541 320.551 32.9109 317.908C31.0349 316.364 29.1652 314.851 27.3274 313.344C25.4896 311.837 23.5119 310.173 21.6041 308.478C21.2607 307.65 20.9681 306.815 20.6502 305.967C20.4976 305.59 20.3831 305.251 20.2686 304.875C20.4673 304.799 20.6838 304.779 20.893 304.819C21.1023 304.859 21.2958 304.957 21.4515 305.101C23.8616 307.361 26.418 309.495 28.8664 311.511C30.6978 313.024 32.5357 314.531 34.4434 316.081C37.693 318.718 41.0571 321.437 44.4911 324.419C46.0237 325.737 47.6262 327.093 49.464 327.621C49.5403 327.658 49.6167 327.658 49.693 327.696C49.5403 327.545 49.4259 327.357 49.3114 327.244C42.9521 319.396 35.8552 312.12 30.4307 306.645C27.9888 304.197 25.5023 301.742 23.0158 299.293C22.2527 298.534 19.0794 296.047 17.0572 294.497L16.5993 292.839V292.802C16.5993 292.726 16.5612 292.689 16.5612 292.613C16.4467 292.199 16.3704 291.784 16.2941 291.358C16.6476 291.359 16.9928 291.464 17.2861 291.659C17.5532 291.885 23.4737 296.412 24.701 297.617C27.1812 300.072 29.6676 302.52 32.1159 304.975C38.8161 311.593 45.1709 318.544 51.1556 325.8C51.7279 326.478 52.3384 327.056 52.8726 327.056C53.2984 326.894 53.6797 326.636 53.9855 326.302L54.2144 326.076C54.4182 325.867 54.6893 325.733 54.9815 325.699C55.2738 325.665 55.569 325.731 55.8169 325.888C56.0459 326.037 56.2142 326.261 56.2922 326.521C56.3701 326.78 56.3527 327.059 56.243 327.307Z" fill="#0D223F"/>
<path d="M90.0807 167.45L89.7691 163.501L82.2397 66.9224L188.09 61.5671L206.856 323.835L102.685 328.858L93.1332 206.432L91.041 179.718" fill="#BEDADA"/>
<g opacity="0.6">
<path d="M117.292 158.215C117.351 158.626 117.46 159.028 117.616 159.414C118.134 160.623 119.023 161.642 120.158 162.327C121.293 163.012 122.617 163.328 123.944 163.231C125.992 163.024 127.855 161.975 129.584 160.939C130.543 160.242 131.55 159.613 132.599 159.056C133.871 158.51 135.143 158.824 136.414 158.924C138.025 158.975 139.637 158.898 141.235 158.692C143.256 158.612 145.249 158.187 147.123 157.436C150.08 156.099 153.629 153.004 152.643 149.331C151.925 146.65 149.775 145.984 147.944 144.384C146.112 142.783 144.84 140.692 142.468 139.637C140.019 138.615 137.268 138.543 134.767 139.436C129.451 141.094 123.645 144.415 120.427 149.067C118.844 151.403 116.86 155.17 117.292 158.215Z" fill="#69ACB4"/>
</g>
<g opacity="0.6">
<path d="M151.282 95.5387C140.968 98.5711 132.999 107.8 135.734 115.064C138.468 122.328 148.529 126.195 159.581 122.95C169.896 119.905 177.864 110.682 175.142 103.424C172.421 96.1665 162.335 92.2929 151.282 95.5387Z" fill="#69ACB4"/>
</g>
<g opacity="0.6">
<path d="M108.421 124.312C99.0982 127.062 90.4241 124.726 86.3351 119.522L85.4575 108.127C87.944 103.261 93.5592 98.8473 100.128 96.8822C111.174 93.6364 121.26 97.5101 124.014 104.768C126.767 112.025 118.742 121.248 108.421 124.312Z" fill="#69ACB4"/>
</g>
<g opacity="0.6">
<path d="M211.479 230.879C209.985 241.445 208.077 251.704 206.551 262.195C203.797 269.101 200.586 275.888 197.183 282.53C194.818 287.208 192.331 291.81 189.851 296.342C182.322 310.035 173.317 324.595 158.475 329.881C147.13 333.88 134.634 331.614 122.863 329.253C115.829 327.891 108.033 326.045 104.02 320.162C100.205 314.574 101.082 307.141 102.189 300.467C102.99 295.602 104.141 290.24 108.147 287.283C114.303 282.681 122.939 286.26 130.621 286.53C138.837 286.793 146.71 282.945 152.821 277.545C158.932 272.146 163.441 265.284 167.683 258.384C175.25 246.121 182.205 233.533 188.548 220.62C191.339 214.97 193.978 209.263 196.268 203.38C196.611 202.432 196.955 201.114 197.336 199.645C197.357 199.624 197.37 199.598 197.374 199.569C198.373 195.382 199.517 189.907 201.73 187.641C204.578 190.148 206.857 193.22 208.42 196.656C212.929 206.507 213.082 219.484 211.479 230.879Z" fill="#69ACB4"/>
</g>
<path d="M177.228 257.48C177.076 257.792 176.996 258.132 176.993 258.478C176.866 260.757 178.15 262.873 179.498 264.719C179.837 265.308 180.382 265.755 181.031 265.974C181.296 266.015 181.566 266.001 181.825 265.931C182.083 265.862 182.324 265.74 182.532 265.573C182.95 265.239 183.314 264.846 183.613 264.405L186.29 260.908C186.877 260.199 187.382 259.429 187.797 258.61C188.09 257.982 188.249 257.191 187.797 256.683C187.509 256.417 187.145 256.246 186.754 256.193C185.501 255.924 184.209 255.877 182.939 256.055C181.785 256.268 180.615 256.38 179.441 256.388C179.007 256.357 178.572 256.442 178.183 256.634C177.793 256.826 177.464 257.118 177.228 257.48V257.48Z" fill="#2092C4"/>
<path d="M181.33 266.709C181.18 266.708 181.031 266.691 180.885 266.659C180.06 266.412 179.362 265.864 178.932 265.127C177.546 263.244 176.147 260.946 176.287 258.441C176.297 257.993 176.408 257.554 176.611 257.154C176.903 256.682 177.32 256.298 177.816 256.043C178.312 255.787 178.87 255.67 179.428 255.703C180.401 255.702 181.371 255.616 182.328 255.446L182.805 255.377C184.164 255.18 185.547 255.229 186.888 255.521C187.428 255.596 187.928 255.843 188.312 256.224C188.891 256.852 188.948 257.838 188.44 258.905C188.002 259.771 187.469 260.585 186.85 261.335L184.179 264.832C183.834 265.32 183.424 265.76 182.958 266.138C182.49 266.494 181.92 266.694 181.33 266.709V266.709ZM179.339 257.091C179.05 257.076 178.761 257.134 178.5 257.26C178.24 257.387 178.016 257.577 177.851 257.813C177.747 258.033 177.693 258.273 177.692 258.516C177.578 260.594 178.831 262.609 180.071 264.317C180.401 264.763 180.758 265.215 181.177 265.303C181.344 265.319 181.513 265.302 181.673 265.254C181.834 265.205 181.983 265.126 182.112 265.02C182.473 264.725 182.79 264.38 183.053 263.997L185.73 260.494C186.285 259.823 186.765 259.094 187.161 258.321C187.346 257.932 187.479 257.392 187.263 257.154C187.068 257.002 186.835 256.907 186.589 256.877C185.413 256.622 184.2 256.58 183.009 256.752L182.532 256.821C181.495 257.004 180.444 257.094 179.39 257.091H179.339Z" fill="#0D223F"/>
<path d="M82.2206 66.9412L94.2842 25.9756L171.702 21.8822L188.102 61.5608L82.2206 66.9412Z" fill="#BEDADA"/>
<path d="M80.6118 68.1969L93.3812 24.8455L172.484 20.6642L189.839 62.6532L80.6118 68.1969ZM95.1936 27.1057L83.8295 65.6793L186.366 60.4746L170.92 23.1002L95.1936 27.1057Z" fill="#0D223F"/>
<path d="M94.2842 25.9756L94.1379 16.326C94.0998 14.0218 96.0839 12.0944 98.6467 11.9312L165.076 8.27095C166.231 8.16569 167.385 8.48476 168.316 9.16707C169.248 9.84937 169.892 10.847 170.125 11.9688L171.702 21.8508L94.2842 25.9756Z" fill="#BEDADA"/>
<path d="M93.1268 27.2124L92.9614 16.3573C92.9106 13.4128 95.3907 10.9706 98.5957 10.7948L164.987 7.12829C166.438 6.99853 167.887 7.40685 169.051 8.27376C170.215 9.14068 171.01 10.4041 171.282 11.8181L173.063 22.9809L93.1268 27.2124ZM165.368 9.47007H165.139L98.7166 13.1366C96.8088 13.2433 95.3016 14.6434 95.3271 16.3197L95.4543 24.7388L170.322 20.7772L168.948 12.1823C168.77 11.3868 168.313 10.6789 167.658 10.1829C167.003 9.68691 166.193 9.43452 165.368 9.47007V9.47007Z" fill="#0D223F"/>
<path d="M153.928 389.066C149.763 389.485 145.58 389.694 141.394 389.694C116.26 389.725 91.6738 382.447 70.704 368.768C72.9552 351.641 72.9552 333.572 64.3956 318.63C60.8408 320.595 58.0363 323.986 55.1492 326.792L54.8058 327.131C54.3283 327.681 53.6837 328.064 52.968 328.223C51.8233 328.336 50.9457 327.395 50.2208 326.528C44.2569 319.327 37.9299 312.427 31.2638 305.854C28.8218 303.405 26.0683 301.177 23.6327 298.722C22.4435 297.592 19.7726 295.407 16.5993 292.839C16.1796 291.106 15.7981 289.33 15.4547 287.559C15.1049 285.933 14.8187 284.313 14.5707 282.656C13.6551 276.949 13.1451 271.186 13.0445 265.409C26.8314 252.388 41.2033 240.692 54.1572 228.807C69.2477 214.92 78.4559 208.717 93.6673 207.832C94.5067 214.11 97.184 220.018 99.5496 226.089C99.9312 227.106 100.319 228.167 100.701 229.184C103.066 235.82 103.372 244.917 106.316 251.478C108.497 258.196 112.968 263.476 117.4 268.831C119.384 271.248 121.336 273.621 123.123 276.189C123.953 277.257 124.562 278.475 124.917 279.774C125.184 281.281 124.726 282.794 124.535 284.263C124.503 284.526 124.491 284.79 124.497 285.054C124.192 290.334 127.441 295.357 131.34 299.048C135.429 302.935 140.319 305.917 144.217 309.991C154.227 320.558 155.721 336.172 156.713 350.587C157.673 364.317 157.597 376.07 153.928 389.066Z" fill="#65BADB"/>
<path d="M124.542 284.263C124.51 284.526 124.497 284.79 124.503 285.054C118.24 284.753 113.464 278.682 107.193 277.131C100.923 275.58 93.7436 278.795 90.1125 283.924C88.0521 286.906 86.9329 290.636 84.3065 293.203C80.0267 297.353 75.4417 294.898 74.2525 289.656C72.5355 282.185 75.2127 274.532 76.7962 267.023C78.6276 258.045 75.766 230.879 60.8599 242.161C44.4466 254.573 27.9443 267.136 14.5644 282.643C13.6487 276.937 13.1387 271.174 13.0381 265.397C26.8314 252.388 41.2034 240.692 54.1572 228.807C69.2477 214.92 78.4559 208.717 93.6673 207.832C94.5067 214.11 97.184 220.018 99.5496 226.089C96.8406 231.067 94.7357 236.316 94.087 241.935C93.1713 249.218 95.3589 257.442 100.663 262.76C105.629 267.739 111.473 267.663 117.4 268.831C118.497 269.028 119.58 269.292 120.643 269.622L119.371 271.248C120.643 272.868 121.915 274.494 123.117 276.189C123.946 277.257 124.556 278.475 124.91 279.774C125.19 281.268 124.732 282.794 124.542 284.263Z" fill="#42A4C6"/>
<g opacity="0.6">
<path d="M92.3064 195.884C91.8994 190.667 91.6705 185.55 91.6705 180.314C91.6705 179.303 91.3271 177.928 90.3033 177.985C112.599 174.525 135.34 176.503 157.902 176.07C168.281 175.869 179.085 175.229 188.598 179.322C190.055 179.95 191.568 180.785 192.204 182.223C193.838 185.889 189.66 190.623 187.314 193.071C184.673 195.806 181.734 198.244 178.551 200.342C162.017 211.297 140.224 214.455 120.681 213.382C119.308 213.306 117.934 213.231 116.592 213.118C111.554 212.764 106.577 211.814 101.769 210.286C98.7587 209.306 95.8619 208.014 93.1268 206.431L92.3064 195.884Z" fill="#69ACB4"/>
</g>
<path d="M92.122 193.511C95.8994 219.88 108.02 252.953 120.217 271.217C113.069 271.462 108.135 272.278 102.755 276.993C97.3748 281.708 90.3223 291.715 90.6339 299.092C83.944 268.291 79.6324 243.059 82.9519 211.825C83.3907 208.61 84.184 205.452 85.3176 202.407C86.5894 198.992 88.1538 195.168 92.0012 193.944" fill="#65BADB"/>
<path d="M89.4702 299.337C83.219 270.564 78.3224 244.088 81.7691 211.711C82.2293 208.394 83.0523 205.135 84.2238 201.993C85.3685 198.916 87.0918 194.264 91.6578 192.814L91.8994 193.542L93.3239 193.348C97.0123 219.088 109.012 252.288 121.235 270.57L122.398 272.322L120.281 272.391C112.917 272.648 108.542 273.533 103.569 277.878C98.5957 282.223 91.5433 291.86 91.8422 299.048L89.4702 299.337ZM91.219 195.545C88.7961 196.895 87.5624 199.745 86.4305 202.803C85.3294 205.763 84.5575 208.832 84.1284 211.956C80.9488 241.74 84.936 266.527 90.4877 292.808C92.6943 286.31 97.9026 279.655 101.934 276.114C106.914 271.763 111.473 270.532 118.068 270.137C106.399 251.76 95.1299 220.507 91.219 195.545Z" fill="#0D223F"/>
<path d="M177.069 105.176C177.121 105.932 177.095 106.691 176.993 107.442C176.651 109.843 175.651 112.105 174.102 113.986C172.554 115.867 170.514 117.294 168.204 118.115C165.488 118.964 162.576 118.99 159.845 118.19C157.113 117.39 154.687 115.8 152.878 113.626C149.934 110.079 148.751 102.84 151.39 98.6151C153.451 95.3315 157.692 93.4418 161.705 93.0274C162.977 92.9125 164.258 92.9505 165.521 93.1404C171.467 94.0884 176.63 99.1989 177.069 105.176Z" fill="#D5E0DD"/>
<path d="M125.038 110.644C124.885 111.335 124.654 112.007 124.351 112.647C123.13 115.253 121.064 117.383 118.479 118.7C115.894 120.017 112.938 120.445 110.079 119.917C107.22 119.389 104.621 117.935 102.693 115.784C100.766 113.634 99.6191 110.911 99.4352 108.045C99.2591 105.232 100.011 102.439 101.578 100.084C102.959 98.0147 104.888 96.358 107.155 95.2938L105.476 96.3863C107.103 95.3745 108.948 94.7551 110.863 94.5781C112.592 94.3514 114.35 94.4643 116.035 94.9103C117.72 95.3564 119.299 96.1268 120.681 97.1773C122.611 98.7947 124.043 100.914 124.813 103.295C125.583 105.676 125.661 108.222 125.038 110.644V110.644Z" fill="#D5E0DD"/>
<path d="M126.195 297.968C127.411 298.663 128.433 299.645 129.171 300.825C129.807 301.987 130.004 303.142 129.572 303.876C128.383 305.879 123.429 303.688 121.833 300.58C121.197 299.325 121.305 298.176 121.985 297.56C122.812 296.807 124.453 296.964 126.195 297.968Z" fill="#42A4C6"/>
<path d="M127.937 305.339H127.817C125.686 305.276 122.519 303.456 121.19 300.894C120.414 299.387 120.554 297.912 121.502 297.046C122.602 296.054 124.535 296.179 126.545 297.372C127.87 298.136 128.98 299.215 129.775 300.511C130.577 301.949 130.723 303.311 130.163 304.278C129.921 304.634 129.588 304.921 129.196 305.107C128.805 305.294 128.371 305.374 127.937 305.339V305.339ZM123.41 297.805C123.063 297.785 122.721 297.892 122.449 298.107C121.979 298.527 121.979 299.362 122.449 300.298C123.505 302.344 126.182 303.933 127.868 303.983C128.071 304.015 128.279 303.992 128.471 303.917C128.662 303.842 128.829 303.717 128.955 303.556C129.241 303.073 129.082 302.144 128.548 301.189C127.867 300.118 126.933 299.226 125.826 298.59V298.59C125.105 298.117 124.273 297.836 123.41 297.774V297.805Z" fill="#0D223F"/>
<path d="M104.923 23.7092C104.767 23.7059 104.613 23.6723 104.47 23.6103C104.327 23.5482 104.198 23.459 104.09 23.3476C103.982 23.2363 103.897 23.105 103.84 22.9613C103.784 22.8175 103.756 22.6642 103.759 22.51L103.893 16.3636C103.893 16.209 103.924 16.0559 103.986 15.9135C104.047 15.7712 104.137 15.6425 104.249 15.5353C104.362 15.428 104.496 15.3443 104.642 15.2892C104.789 15.2341 104.945 15.2088 105.101 15.2147C105.258 15.2171 105.413 15.2501 105.556 15.3118C105.7 15.3735 105.83 15.4626 105.939 15.5741C106.048 15.6855 106.133 15.8171 106.19 15.9612C106.247 16.1053 106.275 16.2591 106.271 16.4138L106.138 22.5603C106.135 22.7144 106.1 22.8665 106.038 23.0077C105.975 23.1489 105.884 23.2764 105.772 23.3831C105.659 23.4898 105.526 23.5735 105.38 23.6295C105.235 23.6854 105.079 23.7125 104.923 23.7092V23.7092Z" fill="#0D223F"/>
<path d="M117.413 22.8177C117.112 22.8168 116.823 22.7037 116.604 22.501C116.385 22.2983 116.251 22.0212 116.23 21.7252L115.804 15.83C115.781 15.5186 115.885 15.211 116.092 14.975C116.298 14.7389 116.592 14.5937 116.907 14.5712C117.223 14.5487 117.534 14.6508 117.773 14.8551C118.012 15.0594 118.16 15.3491 118.182 15.6605L118.602 21.562C118.623 21.8732 118.518 22.1799 118.311 22.4152C118.104 22.6504 117.811 22.7951 117.496 22.8177H117.413Z" fill="#0D223F"/>
<path d="M160.535 19.9862C160.234 19.9854 159.944 19.8725 159.724 19.67C159.503 19.4675 159.368 19.1903 159.346 18.8938L158.926 12.9922C158.912 12.8365 158.929 12.6794 158.976 12.5303C159.024 12.3812 159.102 12.243 159.204 12.1238C159.307 12.0046 159.433 11.9069 159.574 11.8364C159.715 11.7658 159.87 11.7239 160.028 11.713C160.186 11.7021 160.344 11.7225 160.494 11.773C160.644 11.8235 160.782 11.9031 160.901 12.0071C161.019 12.111 161.115 12.2373 161.183 12.3784C161.252 12.5196 161.291 12.6727 161.298 12.829L161.724 18.7243C161.745 19.0354 161.641 19.3421 161.433 19.5774C161.226 19.8127 160.933 19.9574 160.618 19.9799L160.535 19.9862Z" fill="#0D223F"/>
<path d="M133.89 21.2921C133.592 21.2916 133.306 21.1811 133.087 20.9823C132.868 20.7836 132.732 20.511 132.707 20.2185L132.262 15.1959C132.234 14.8853 132.332 14.5766 132.535 14.3376C132.738 14.0986 133.028 13.9489 133.343 13.9214C133.657 13.8939 133.97 13.9909 134.212 14.1911C134.454 14.3912 134.606 14.6781 134.634 14.9887L135.073 20.0113C135.095 20.3188 134.995 20.6229 134.793 20.8578C134.59 21.0928 134.303 21.2397 133.991 21.2669L133.89 21.2921Z" fill="#0D223F"/>
<path d="M147.537 20.5449C147.238 20.5443 146.951 20.4329 146.732 20.2329C146.513 20.0328 146.378 19.7588 146.354 19.4651L145.858 13.9402C145.844 13.7865 145.862 13.6316 145.909 13.4845C145.956 13.3374 146.033 13.2009 146.133 13.0828C146.234 12.9648 146.357 12.8675 146.496 12.7964C146.635 12.7254 146.786 12.6821 146.942 12.6689C147.098 12.6557 147.255 12.6729 147.404 12.7196C147.553 12.7662 147.691 12.8414 147.811 12.9408C148.052 13.1415 148.203 13.4288 148.23 13.7393L148.72 19.2579C148.742 19.5654 148.642 19.8695 148.44 20.1045C148.237 20.3394 147.95 20.4863 147.638 20.5135L147.537 20.5449Z" fill="#0D223F"/>
<path d="M33.4832 308.07C33.1155 308.372 32.7828 308.713 32.4912 309.087C31.9125 309.803 31.3402 310.594 30.9968 311.084C30.117 312.354 29.3993 313.727 28.86 315.171C28.1732 317.023 27.5182 318.756 26.9523 320.42C26.6852 319.924 26.4562 319.434 26.2273 318.944C22.8101 312.237 20.0421 305.227 17.9603 298.006L16.5485 292.839C19.6073 295.256 22.1637 297.328 23.3084 298.458C25.8394 300.938 30.9968 305.615 33.4832 308.07Z" fill="#BEDADA"/>
<g opacity="0.6">
<path d="M20.3132 305.088C20.7265 305.132 21.1462 305.17 21.585 305.239C24.6088 305.815 27.557 306.727 30.3735 307.957C30.9459 308.183 31.6454 308.635 32.5166 309.087C32.8082 308.713 33.1409 308.372 33.5086 308.07C31.0222 305.615 25.8775 300.938 23.3783 298.483C22.2591 297.353 19.6836 295.306 16.6693 292.864C17.6719 296.998 18.8881 301.077 20.3132 305.088V305.088Z" fill="#69ACB4"/>
</g>
<path d="M97.1522 260.117C100.949 260.117 104.027 257.078 104.027 253.33C104.027 249.582 100.949 246.543 97.1522 246.543C93.3556 246.543 90.2778 249.582 90.2778 253.33C90.2778 257.078 93.3556 260.117 97.1522 260.117Z" fill="white"/>
<path d="M100.421 325.857C102.721 325.857 104.586 324.015 104.586 321.744C104.586 319.473 102.721 317.632 100.421 317.632C98.1204 317.632 96.2556 319.473 96.2556 321.744C96.2556 324.015 98.1204 325.857 100.421 325.857Z" fill="white"/>
<path d="M51.4227 304.121C54.7276 304.121 57.4068 301.476 57.4068 298.213C57.4068 294.951 54.7276 292.305 51.4227 292.305C48.1178 292.305 45.4386 294.951 45.4386 298.213C45.4386 301.476 48.1178 304.121 51.4227 304.121Z" fill="white"/>
<path d="M50.9967 258.083C53.4867 258.083 55.5054 256.09 55.5054 253.631C55.5054 251.173 53.4867 249.18 50.9967 249.18C48.5066 249.18 46.4879 251.173 46.4879 253.631C46.4879 256.09 48.5066 258.083 50.9967 258.083Z" fill="white"/>
<path d="M89.1204 219.773C91.024 219.773 92.5672 218.249 92.5672 216.37C92.5672 214.491 91.024 212.967 89.1204 212.967C87.2169 212.967 85.6737 214.491 85.6737 216.37C85.6737 218.249 87.2169 219.773 89.1204 219.773Z" fill="white"/>
<path d="M125.693 352.219C127.385 352.219 128.758 350.864 128.758 349.193C128.758 347.521 127.385 346.167 125.693 346.167C124 346.167 122.627 347.521 122.627 349.193C122.627 350.864 124 352.219 125.693 352.219Z" fill="white"/>
<path d="M99.4861 382.198C99.1329 382.266 98.7763 382.316 98.4177 382.348C95.9758 381.519 93.5656 380.615 91.2317 379.598C89.9268 378.197 89.1276 376.409 88.9587 374.513C88.7897 372.616 89.2603 370.718 90.2974 369.113C91.3345 367.508 92.8798 366.287 94.6928 365.639C96.5059 364.991 98.4851 364.953 100.322 365.531C102.16 366.108 103.752 367.269 104.852 368.833C105.951 370.397 106.497 372.275 106.403 374.177C106.309 376.078 105.581 377.895 104.332 379.346C103.084 380.797 101.384 381.799 99.4988 382.198H99.4861Z" fill="white"/>
<path d="M129.12 149.682V149.783C128.839 151.273 128.728 152.789 128.79 154.303C128.874 155.485 129.413 156.59 130.297 157.392C131.632 158.497 133.247 158.089 134.596 157.267C136.869 155.813 138.716 153.795 139.95 151.415C139.808 151.975 139.871 152.567 140.128 153.085C140.534 153.975 141.176 154.741 141.985 155.301C143.575 156.344 145.165 157.185 147.162 157.072C150.475 156.84 153.597 154.002 154.233 150.656C154.591 148.344 154.121 145.982 152.904 143.975C151.187 140.949 147.06 135.481 143.06 136.661C140.815 137.327 138.074 138.237 136.294 139.8C134.786 141.125 132.891 141.841 131.55 143.366C130.011 145.131 129.375 147.422 129.12 149.682Z" fill="#EAA197"/>
<path d="M143.003 139.681C143.06 139.876 143.123 140.045 143.181 140.19C144.306 143.115 147.441 144.76 148.751 147.598C148.857 147.822 148.949 148.053 149.025 148.289C149.489 149.689 149.699 151.572 151.537 151.836C153.171 152.074 153.94 150.725 154.583 149.544C155.225 148.364 154.958 146.995 154.583 145.809C153.044 141.232 149.114 137.829 145.877 136.128C145.409 135.886 144.908 135.714 144.389 135.619C142.023 135.236 142.507 138.124 143.003 139.681Z" fill="#FFD2C9"/>
<path d="M132.554 159.181C131.448 159.198 130.369 158.836 129.502 158.158C128.154 157.059 127.734 155.352 127.537 154.159C127.125 151.802 127.243 149.384 127.88 147.077C129.044 143.059 131.874 140.679 134.494 138.878C134.907 138.595 135.308 138.281 135.734 137.948C136.499 137.321 137.316 136.759 138.176 136.266L139.371 138.438C138.638 138.865 137.94 139.35 137.286 139.888C136.853 140.227 136.402 140.579 135.925 140.912C132.745 143.103 131.041 145.156 130.29 147.755C129.751 149.713 129.656 151.765 130.011 153.763C130.22 155.019 130.564 155.816 131.098 156.275C131.397 156.484 131.738 156.627 132.098 156.694C132.458 156.761 132.828 156.751 133.184 156.664C136.3 156.036 137.883 154.429 138.023 151.823L140.332 151.195C141.021 152.484 142.102 153.527 143.422 154.178C144.971 155.091 146.82 155.368 148.573 154.95C149.2 154.799 149.783 154.506 150.276 154.096C150.769 153.685 151.159 153.167 151.416 152.583C151.96 151.357 152.254 150.037 152.28 148.699C152.306 147.361 152.064 146.031 151.568 144.785L153.851 143.768C154.506 145.347 154.826 147.042 154.792 148.748C154.758 150.454 154.371 152.135 153.654 153.688C153.233 154.603 152.605 155.411 151.818 156.049C151.03 156.687 150.105 157.138 149.114 157.367C146.729 157.917 144.222 157.532 142.119 156.293C141.313 155.846 140.562 155.309 139.88 154.692C138.882 156.902 136.764 158.422 133.699 159.087C133.321 159.155 132.938 159.187 132.554 159.181V159.181Z" fill="#0D223F"/>
<path d="M147.295 152.564C147.026 152.564 146.758 152.539 146.494 152.489C145.924 152.385 145.386 152.155 144.92 151.816C144.454 151.476 144.072 151.037 143.804 150.53C143.588 150.087 143.465 149.606 143.442 149.115C143.419 148.624 143.497 148.134 143.67 147.673H143.619C143.806 147.124 144.118 146.625 144.532 146.214C144.946 145.803 145.45 145.492 146.005 145.305C146.561 145.118 147.152 145.06 147.734 145.136C148.316 145.211 148.872 145.418 149.36 145.74C149.847 146.063 150.253 146.492 150.545 146.994C150.838 147.496 151.009 148.058 151.045 148.636C151.082 149.214 150.983 149.793 150.756 150.327C150.529 150.862 150.18 151.337 149.737 151.717C149.053 152.28 148.186 152.582 147.295 152.564V152.564ZM146.258 148.05L146.316 148.132C146.136 148.293 146.014 148.507 145.967 148.742C145.92 148.977 145.951 149.221 146.055 149.438C146.16 149.598 146.296 149.735 146.455 149.842C146.615 149.949 146.795 150.023 146.984 150.06C147.174 150.097 147.368 150.096 147.557 150.057C147.746 150.018 147.925 149.942 148.084 149.833C148.221 149.699 148.325 149.536 148.389 149.357C148.453 149.178 148.474 148.986 148.452 148.797C148.446 148.605 148.398 148.417 148.31 148.245C148.222 148.074 148.097 147.924 147.944 147.805C147.776 147.708 147.588 147.65 147.394 147.636C147.2 147.622 147.005 147.652 146.824 147.724C146.615 147.783 146.422 147.888 146.258 148.031V148.05Z" fill="#0D223F"/>
<path d="M134.805 151.641H134.57C133.596 151.564 132.687 151.125 132.027 150.414C131.366 149.702 131.003 148.77 131.009 147.805C131.042 147.296 131.188 146.799 131.436 146.351C131.685 145.903 132.029 145.515 132.446 145.212C133.025 144.772 133.731 144.523 134.462 144.503L134.271 144.007C134.939 143.772 135.663 143.747 136.346 143.933C137.028 144.12 137.636 144.509 138.087 145.049C138.49 145.549 138.764 146.138 138.887 146.765C139.01 147.393 138.978 148.04 138.793 148.653C138.534 149.504 138.009 150.251 137.292 150.788C136.576 151.326 135.705 151.624 134.805 151.641V151.641ZM134.519 146.97C134.312 146.978 134.113 147.053 133.953 147.184C133.831 147.267 133.728 147.375 133.652 147.501C133.575 147.626 133.526 147.766 133.508 147.912C133.529 148.23 133.663 148.53 133.886 148.76C134.11 148.99 134.408 149.134 134.729 149.168C135.096 149.167 135.453 149.05 135.746 148.832C136.04 148.615 136.254 148.31 136.357 147.962C136.428 147.739 136.444 147.502 136.406 147.271C136.367 147.039 136.274 146.82 136.135 146.631C136.017 146.494 135.863 146.391 135.69 146.336C135.517 146.28 135.332 146.274 135.155 146.317L134.945 145.777L134.653 146.995C134.61 146.981 134.565 146.972 134.519 146.97V146.97Z" fill="#0D223F"/>
<path d="M269.679 266.722C269.679 267.098 269.641 267.437 269.641 267.814V268.492C269.597 268.869 269.597 269.245 269.558 269.622C269.52 270.419 269.482 271.173 269.406 271.926L269.291 273.621V273.772C268.796 279.678 267.865 285.541 266.506 291.313C263.905 293.197 260.694 294.974 258.938 296.933C257.488 298.552 255.994 300.141 254.487 301.761C254.411 301.836 254.334 301.949 254.258 302.024C253.915 302.363 253.622 302.702 253.304 303.041C248.255 308.441 242.792 313.683 235.842 315.566C234.881 315.868 233.737 316.025 232.935 315.416C232.429 315.024 232.089 314.46 231.981 313.834C232.325 314.361 232.668 314.851 232.973 315.378C235.34 307.486 239.061 300.053 243.975 293.404C244.128 293.216 244.248 293.027 244.401 292.839C249.262 286.301 254.708 280.207 260.674 274.632C262.054 273.27 263.428 271.951 264.84 270.671C265.069 270.482 265.298 270.256 265.533 270.043C265.768 269.829 265.991 269.66 266.22 269.415C267.371 268.53 268.643 267.626 269.679 266.722Z" fill="#42A4C6"/>
<path d="M157.139 380.22L154.812 379.837C156.541 369.572 156.192 359.747 155.549 350.668C154.494 335.305 152.764 320.702 143.371 310.795C141.219 308.657 138.915 306.672 136.478 304.856C134.481 303.299 132.421 301.685 130.538 299.896C127.689 297.196 122.964 291.671 123.333 285.023C123.33 284.712 123.347 284.402 123.384 284.094C123.435 283.704 123.505 283.296 123.581 282.888C123.809 281.934 123.873 280.95 123.772 279.975C123.441 278.837 122.892 277.772 122.157 276.836C121.146 275.386 120.001 273.879 118.462 271.97L120.319 270.507C121.896 272.46 123.066 274.004 124.135 275.53C125.059 276.727 125.733 278.092 126.119 279.548C126.282 280.805 126.218 282.081 125.928 283.315C125.864 283.692 125.794 284.062 125.75 284.439C125.734 284.648 125.734 284.858 125.75 285.067V285.136C125.419 290.855 129.667 295.809 132.23 298.22C134.03 299.927 136.046 301.503 137.991 303.023C140.523 304.91 142.914 306.974 145.146 309.2C155.072 319.672 156.872 334.721 157.966 350.518C158.557 359.747 158.913 369.716 157.139 380.22Z" fill="#0D223F"/>
<path d="M268.948 273.32C267.425 287.007 263.631 300.353 257.717 312.823C253.871 306.405 248.749 300.823 242.659 296.411C248.891 286.561 257.87 277.696 266.086 271.06C267.078 271.776 268.007 272.529 268.948 273.32Z" fill="#BEDADA"/>
<path d="M35.2575 308.221L34.1891 309.012C33.8922 309.259 33.6235 309.536 33.3878 309.841C32.8537 310.519 32.2813 311.272 31.9697 311.768C31.1341 312.959 30.4546 314.251 29.9475 315.61C29.2607 317.494 28.612 319.195 28.116 320.784L27.8489 322.039C27.5373 321.512 27.213 320.947 26.965 320.42C26.717 319.892 26.469 319.434 26.24 318.944C26.6597 317.588 27.1558 316.27 27.6899 314.87C28.2745 313.302 29.0451 311.807 29.9856 310.418C30.3672 309.891 30.9395 309.062 31.5119 308.346C31.5882 308.233 31.7026 308.158 31.7789 308.045C30.5961 306.909 29.0699 305.477 27.5373 304.084C25.6295 302.269 23.7217 300.499 22.4944 299.293C21.4642 298.27 19.2448 296.462 17.1081 294.76L17.07 294.723L17.0318 294.497L16.5739 292.839V292.801C16.5739 292.726 16.5358 292.688 16.5358 292.613C16.4213 292.199 16.345 291.784 16.2687 291.358C16.225 291.236 16.1993 291.109 16.1924 290.981C19.6327 293.731 23.2575 296.713 24.1796 297.617C25.4006 298.822 27.2702 300.599 29.1844 302.332C31.0985 304.065 33.0444 305.954 34.3036 307.198L35.2575 308.221Z" fill="#0D223F"/>
<path d="M197.578 177.5L195.206 177.666L196.636 197.663L199.009 197.497L197.578 177.5Z" fill="#0D223F"/>
<path d="M177.069 105.176C177.121 105.932 177.095 106.691 176.993 107.442C175.308 110.343 172.217 112.465 167.778 112.308C156.662 112.007 154.824 98.276 161.705 93.0274C162.977 92.9125 164.258 92.9505 165.521 93.1404C171.467 94.0884 176.63 99.1989 177.069 105.176Z" fill="white"/>
<path d="M163.009 107.304C162.15 104.843 157.559 103.424 157.012 107.16C156.834 108.415 157.584 109.583 158.284 110.607C158.515 110.995 158.834 111.325 159.216 111.572C159.597 111.819 160.031 111.977 160.484 112.032C161.025 112.042 161.556 111.892 162.01 111.601C162.463 111.31 162.818 110.891 163.028 110.399C163.416 109.402 163.41 108.297 163.009 107.304Z" fill="#0D223F"/>
<path d="M160.605 112.967H160.408C159.809 112.901 159.233 112.7 158.725 112.38C158.217 112.06 157.79 111.629 157.476 111.121C156.84 110.142 155.848 108.66 156.084 107.034C156.338 105.264 157.451 104.121 159.053 103.97C160.081 103.915 161.101 104.178 161.97 104.723C162.839 105.267 163.513 106.067 163.899 107.009C164.368 108.225 164.35 109.572 163.848 110.776C163.572 111.406 163.121 111.947 162.548 112.334C161.974 112.722 161.3 112.942 160.605 112.967V112.967ZM159.422 105.797H159.231C158.5 105.866 158.074 106.35 157.96 107.279C157.845 108.208 158.411 109.1 159.066 110.085C159.218 110.355 159.428 110.589 159.682 110.769C159.936 110.949 160.227 111.072 160.535 111.128C160.881 111.118 161.216 111.011 161.501 110.818C161.787 110.626 162.01 110.356 162.144 110.041C162.453 109.265 162.453 108.401 162.144 107.624V107.624C161.909 107.099 161.529 106.649 161.048 106.326C160.567 106.003 160.004 105.82 159.422 105.797V105.797Z" fill="#0D223F"/>
<path d="M164.033 119.967C161.721 119.966 159.438 119.464 157.345 118.496C155.252 117.529 153.399 116.119 151.918 114.367V114.367C148.739 110.519 147.429 102.696 150.373 97.9998C153.413 93.153 160.548 91.0937 165.705 91.9664C172.382 93.0588 177.788 98.6967 178.227 105.075C178.665 111.146 174.513 117.236 168.567 119.239C167.107 119.729 165.574 119.975 164.033 119.967V119.967ZM163.327 94.1324C159.301 94.1324 154.513 95.8589 152.395 99.2366C149.998 103.06 151.168 109.715 153.769 112.892C157.063 116.916 162.964 118.649 167.797 117.017C172.758 115.347 176.223 110.286 175.855 105.245C175.473 100.003 170.843 95.1997 165.317 94.2831C164.659 94.1808 163.993 94.1304 163.327 94.1324V94.1324Z" fill="#0D223F"/>
<path d="M125.038 110.644C124.049 111.609 122.863 112.353 121.559 112.829C120.255 113.304 118.863 113.499 117.476 113.4C106.621 113.061 104.637 100.046 110.863 94.5656C112.592 94.3388 114.35 94.4517 116.035 94.8978C117.72 95.3438 119.299 96.1142 120.682 97.1648C122.614 98.7832 124.046 100.905 124.816 103.288C125.587 105.671 125.663 108.22 125.038 110.644V110.644Z" fill="white"/>
<path d="M107.117 112.107C107.963 112.848 109.222 113.287 110.24 112.823C110.562 112.654 110.842 112.417 111.062 112.13C111.282 111.843 111.435 111.511 111.511 111.159C111.658 110.447 111.619 109.711 111.397 109.018C111.162 108.113 110.664 107.295 109.966 106.664C108.662 105.559 106.151 105.609 105.515 107.392C105.025 108.88 106.017 111.128 107.117 112.107Z" fill="#0D223F"/>
<path d="M109.343 113.94C108.293 113.912 107.29 113.508 106.519 112.804C105.082 111.548 104.007 108.936 104.688 107.078C104.865 106.596 105.16 106.166 105.548 105.825C105.935 105.484 106.402 105.244 106.907 105.126C107.55 104.966 108.222 104.959 108.869 105.104C109.515 105.249 110.118 105.542 110.627 105.961C111.468 106.709 112.067 107.685 112.351 108.767C112.619 109.611 112.66 110.508 112.472 111.372C112.362 111.864 112.142 112.324 111.829 112.721C111.515 113.118 111.115 113.44 110.659 113.664C110.246 113.85 109.797 113.945 109.343 113.94ZM107.912 106.852C107.734 106.851 107.557 106.872 107.384 106.915C107.174 106.959 106.978 107.056 106.816 107.195C106.653 107.335 106.53 107.513 106.456 107.712C106.074 108.748 106.856 110.613 107.772 111.416C108.319 111.9 109.209 112.289 109.871 111.981C110.069 111.874 110.241 111.725 110.375 111.545C110.509 111.365 110.602 111.158 110.647 110.939C110.758 110.383 110.723 109.808 110.545 109.269C110.352 108.549 109.957 107.896 109.407 107.386C108.986 107.043 108.458 106.854 107.912 106.852V106.852Z" fill="#0D223F"/>
<path d="M112.306 121.305C111.492 121.304 110.678 121.23 109.877 121.085C106.895 120.502 104.176 119.002 102.111 116.799C100.046 114.596 98.7403 111.805 98.3816 108.824C98.0228 105.844 98.6294 102.828 100.114 100.209C101.599 97.5896 103.886 95.5021 106.647 94.2454L106.717 94.4023C108.662 93.5492 110.776 93.1376 112.904 93.1976C115.032 93.2577 117.119 93.788 119.011 94.7495C120.904 95.711 122.554 97.0792 123.841 98.7535C125.127 100.428 126.017 102.366 126.445 104.424C126.872 106.483 126.827 108.61 126.312 110.649C125.798 112.688 124.826 114.587 123.47 116.207C122.113 117.826 120.406 119.125 118.474 120.007C116.542 120.889 114.435 121.333 112.306 121.305V121.305ZM105.311 97.8177C104.253 98.6385 103.338 99.6247 102.602 100.737C101.169 102.881 100.476 105.424 100.624 107.988C100.793 110.595 101.837 113.071 103.593 115.024C105.348 116.978 107.713 118.297 110.314 118.773C112.915 119.249 115.602 118.855 117.95 117.652C120.298 116.449 122.172 114.508 123.275 112.134C124.379 109.761 124.648 107.092 124.041 104.55C123.434 102.009 121.985 99.7396 119.924 98.103C117.863 96.4664 115.308 95.5558 112.663 95.5155C110.018 95.4752 107.435 96.3075 105.324 97.8805L105.311 97.8177Z" fill="#0D223F"/>
<path d="M269.279 273.621C268.499 283.098 266.615 292.453 263.663 301.503C262.256 305.942 260.59 310.295 258.671 314.543C255.011 307.83 249.943 301.965 243.803 297.341C243.441 297.017 243.059 296.715 242.659 296.437C248.891 286.586 257.87 277.721 266.086 271.085C267.04 271.763 267.956 272.516 268.872 273.27V273.307C269.024 273.395 269.139 273.508 269.279 273.621Z" fill="#BEDADA"/>
<g opacity="0.6">
<path d="M242.659 296.411C248.891 286.561 257.87 277.696 266.086 271.06C267.04 271.738 267.956 272.491 268.872 273.245V273.282C268.833 273.471 268.833 273.621 268.795 273.81C267.523 275.436 265.514 277.093 264.63 278.38C262.57 281.319 260.884 284.527 260.655 288.149C260.426 291.772 262.188 297.655 263.676 301.503C262.265 305.942 260.594 310.296 258.671 314.543C255.011 307.83 249.943 301.965 243.803 297.341C243.441 297.017 243.059 296.715 242.659 296.437" fill="#69ACB4"/>
</g>
<path d="M259.205 313.237C259.053 313.652 258.862 314.104 258.671 314.493L257.603 315.121C253.438 307.957 247.244 300.9 241.438 296.713L242.811 294.829C248.7 299.048 254.926 306.067 259.205 313.237Z" fill="#0D223F"/>
<path d="M269.406 271.926L269.291 273.621V273.772C269.082 273.92 268.829 273.992 268.572 273.979C268.315 273.965 268.071 273.866 267.879 273.697L265.59 271.889C264.477 272.793 263.409 273.734 262.302 274.72C262.074 274.895 261.791 274.988 261.501 274.984C261.349 274.993 261.197 274.967 261.057 274.909C260.916 274.85 260.792 274.759 260.693 274.645C260.655 274.645 260.655 274.645 260.617 274.607C260.509 274.494 260.424 274.361 260.369 274.215C260.314 274.07 260.289 273.914 260.297 273.759C260.304 273.604 260.343 273.451 260.411 273.311C260.479 273.171 260.575 273.046 260.693 272.943C262.073 271.738 263.447 270.57 264.821 269.471L265.514 268.906L266.239 269.434L266.277 269.471C267.371 270.269 268.376 271.06 269.406 271.926Z" fill="#0D223F"/>
<path d="M83.5434 210.657C73.9091 213.375 66.0808 219.446 54.9585 229.674C49.2351 234.916 43.3401 240.045 37.1143 245.482C29.4324 252.118 20.7583 259.759 13.0763 266.966L13.0382 265.397C13 264.832 13 264.317 13 263.777C20.4531 256.796 28.1351 250.16 35.5436 243.687C41.7375 238.294 47.6262 233.164 53.3496 227.922C64.739 217.488 72.7771 211.266 82.8884 208.397L83.5434 210.657Z" fill="#0D223F"/>
<path d="M269.756 262.948C269.756 264.568 269.717 266.194 269.641 267.814C258.061 276.679 246.671 288.903 239.447 301.428C236.837 305.841 234.687 310.505 233.031 315.347C230.544 311.046 223.784 306.519 219.314 304.222C219.237 304.184 219.199 304.146 219.123 304.109C222.94 320.547 224.698 337.386 224.357 354.247C224.319 354.812 224.319 355.339 224.28 355.904C224.242 357.16 224.204 358.51 224.166 359.79C223.67 360.205 223.174 360.582 222.671 360.996C221.4 362.019 220.128 362.999 218.856 363.94C200.014 378.134 177.521 386.834 153.928 389.053C152.707 389.166 151.448 389.279 150.22 389.355C149.751 388.143 149.343 386.909 148.999 385.657C148.694 384.564 148.465 383.472 148.236 382.336C145.33 370.608 146.208 358.478 145.139 346.499C141.279 332.844 142.004 318.957 146.863 305.603C151.638 296.587 163.715 295.558 172.039 290.096C173.822 289 175.412 287.624 176.745 286.021C183.047 278.594 175.975 272.29 177.966 264.593C182.932 255.917 186.792 249.13 189.813 242.977C196.344 229.586 198.792 219.12 199.517 198.577C208.764 199.745 208.268 205.967 215.873 211.291C235.358 224.871 250.15 238.451 269.444 254.071C269.482 254.636 269.52 255.163 269.558 255.728C269.558 255.954 269.597 256.18 269.597 256.406V256.444C269.717 258.61 269.756 260.757 269.756 262.948Z" fill="#65BADB"/>
<path d="M202.462 288.174C202.233 290.742 201.928 293.304 201.654 295.947C201.54 296.926 201.311 298.056 200.382 298.458C200.078 298.554 199.755 298.573 199.442 298.514C199.129 298.455 198.835 298.319 198.589 298.119C198.087 297.7 197.658 297.204 197.317 296.65C194.848 293.062 192.191 289.604 189.355 286.291C186.64 283.051 183.848 285.035 180.758 287.088C178.133 288.759 175.146 289.792 172.039 290.102C173.822 289.006 175.412 287.63 176.745 286.027C183.047 278.6 175.975 272.297 177.966 264.6C182.932 255.923 186.792 249.136 189.813 242.984C190.195 243.737 190.538 244.49 190.881 245.212C194.627 253.324 198.983 261.278 201.387 269.924C203.142 276.152 202.996 282.11 202.462 288.174Z" fill="#42A4C6"/>
<path d="M239.447 301.428C236.837 305.841 234.687 310.505 233.031 315.347C230.544 311.046 223.784 306.519 219.314 304.222C217.704 302.83 216.29 301.232 215.11 299.469C213.349 296.713 212.357 293.58 213.158 290.372C214.15 286.335 216.14 284.527 219.581 286.335C219.962 286.53 220.344 286.793 220.764 287.057C227.23 291.536 233.466 296.333 239.447 301.428V301.428Z" fill="#42A4C6"/>
<path d="M149.623 339.286H149.521C148.672 339.259 147.849 338.985 147.159 338.496C146.468 338.008 145.94 337.327 145.642 336.542C145.297 335.737 145.2 334.85 145.361 333.99C145.523 333.131 145.937 332.337 146.551 331.708C147.404 330.903 148.535 330.447 149.714 330.432C150.894 330.417 152.036 330.844 152.91 331.626C152.985 331.687 153.047 331.763 153.091 331.848C153.135 331.934 153.161 332.027 153.167 332.123C153.172 332.219 153.158 332.314 153.125 332.404C153.091 332.495 153.039 332.577 152.972 332.646C152.905 332.715 152.824 332.77 152.734 332.807C152.645 332.844 152.548 332.863 152.451 332.861C152.354 332.86 152.258 332.839 152.17 332.799C152.082 332.759 152.002 332.702 151.937 332.631C151.331 332.105 150.549 331.82 149.742 331.83C148.935 331.841 148.161 332.146 147.569 332.687C147.142 333.12 146.855 333.667 146.742 334.26C146.629 334.852 146.695 335.465 146.933 336.021C147.125 336.557 147.477 337.024 147.942 337.36C148.407 337.696 148.964 337.885 149.54 337.904C150.022 337.905 150.499 337.803 150.937 337.606C151.376 337.409 151.767 337.121 152.084 336.762C152.748 336.003 153.124 335.04 153.146 334.037C153.158 333.854 153.241 333.683 153.377 333.559C153.513 333.434 153.691 333.365 153.877 333.365C153.97 333.369 154.061 333.39 154.145 333.428C154.23 333.466 154.306 333.52 154.369 333.587C154.432 333.654 154.481 333.733 154.513 333.819C154.546 333.904 154.561 333.996 154.557 334.087C154.522 335.417 154.016 336.692 153.127 337.691C152.685 338.18 152.146 338.574 151.543 338.849C150.94 339.123 150.286 339.272 149.623 339.286V339.286Z" fill="#0D223F"/>
<path d="M204.446 373.333C199.364 376.178 194.091 378.674 188.662 380.804C188.469 380.314 188.316 379.81 188.204 379.297C187.764 377.267 188.079 375.149 189.091 373.329C190.102 371.509 191.744 370.109 193.714 369.386C195.685 368.662 197.854 368.662 199.824 369.387C201.795 370.112 203.435 371.512 204.446 373.333V373.333Z" fill="white"/>
<path d="M192.789 321.612C196.164 321.612 198.901 318.911 198.901 315.579C198.901 312.247 196.164 309.546 192.789 309.546C189.414 309.546 186.678 312.247 186.678 315.579C186.678 318.911 189.414 321.612 192.789 321.612Z" fill="white"/>
<path d="M165.381 349.143C167.871 349.143 169.89 347.15 169.89 344.691C169.89 342.233 167.871 340.24 165.381 340.24C162.891 340.24 160.872 342.233 160.872 344.691C160.872 347.15 162.891 349.143 165.381 349.143Z" fill="white"/>
<path d="M234.36 316.979C233.595 317 232.845 316.768 232.229 316.32C231.499 315.768 231.005 314.966 230.843 314.072C230.777 313.803 230.811 313.519 230.938 313.271C231.065 313.024 231.277 312.829 231.536 312.722C231.697 312.654 231.871 312.621 232.046 312.628C232.221 312.634 232.392 312.679 232.547 312.76C234.981 305.588 238.515 298.827 243.027 292.714L243.066 292.657C243.126 292.588 243.182 292.515 243.231 292.437C243.314 292.324 243.396 292.205 243.485 292.092C249.845 283.334 257.825 275.586 264.045 269.823L264.102 269.779C264.293 269.622 264.515 269.402 264.706 269.208L265.698 268.316C266.398 267.688 266.887 267.249 267.816 266.383C267.93 266.277 268.064 266.194 268.21 266.139C268.357 266.084 268.513 266.058 268.669 266.063C268.825 266.068 268.98 266.103 269.122 266.166C269.265 266.23 269.394 266.32 269.501 266.433C269.608 266.545 269.692 266.678 269.748 266.822C269.803 266.967 269.829 267.121 269.825 267.275C269.82 267.43 269.784 267.582 269.72 267.723C269.656 267.864 269.564 267.991 269.45 268.097C268.509 268.969 268.007 269.415 267.301 270.055L266.353 270.909C266.169 271.091 265.914 271.336 265.654 271.537C259.511 277.225 251.663 284.853 245.38 293.511L245.183 293.781C245.107 293.888 245.031 293.994 244.948 294.095C240.342 300.328 236.796 307.26 234.449 314.618C234.806 314.601 235.16 314.534 235.498 314.417C241.717 312.729 246.767 308.139 250.894 303.857C251.002 303.746 251.131 303.656 251.273 303.594C251.416 303.531 251.57 303.497 251.726 303.493C251.882 303.489 252.038 303.516 252.184 303.571C252.329 303.627 252.463 303.71 252.576 303.817C252.689 303.923 252.78 304.05 252.843 304.191C252.906 304.332 252.941 304.484 252.945 304.639C252.949 304.793 252.922 304.946 252.866 305.09C252.809 305.234 252.725 305.366 252.617 305.477C248.261 309.985 242.907 314.844 236.172 316.671C235.588 316.867 234.976 316.97 234.36 316.979V316.979Z" fill="#0D223F"/>
<path d="M151.448 389.254C150.99 388.049 150.564 386.837 150.22 385.594C150.182 385.519 150.182 385.443 150.144 385.368C149.839 384.276 149.61 383.221 149.381 382.085C147.511 374.425 147.244 366.471 146.977 358.698C146.824 354.699 146.71 350.536 146.284 346.211C142.55 333.016 143.126 318.995 147.931 306.143C150.831 300.674 156.643 298.333 162.831 295.846C166.195 294.446 169.673 293.053 172.694 291.094C174.567 289.926 176.243 288.475 177.661 286.793C181.788 281.921 180.719 277.508 179.683 273.207C179.047 270.457 178.411 267.852 179.047 265.045C180.268 262.898 181.419 260.895 182.487 258.974L180.503 257.719C179.39 259.677 178.207 261.755 176.91 263.997L176.796 264.261C175.912 267.695 176.643 270.752 177.33 273.728C178.322 277.765 179.161 281.262 175.797 285.236C174.529 286.744 173.027 288.043 171.346 289.085C168.522 290.968 165.158 292.293 161.87 293.611C155.568 296.123 149.069 298.778 145.705 305.157C140.662 319.038 140.052 333.039 143.912 346.594C144.255 350.63 144.408 354.755 144.548 358.78C144.815 366.627 145.082 374.739 146.996 382.543C147.263 383.642 147.454 384.696 147.759 385.682C147.753 385.759 147.766 385.837 147.797 385.908C148.141 387.082 148.484 388.25 148.904 389.38C149.324 389.38 149.743 389.342 150.176 389.305C150.608 389.267 151.028 389.33 151.448 389.254Z" fill="#0D223F"/>
<path d="M220.675 282.398C225.121 282.398 228.725 278.84 228.725 274.45C228.725 270.06 225.121 266.502 220.675 266.502C216.228 266.502 212.624 270.06 212.624 274.45C212.624 278.84 216.228 282.398 220.675 282.398Z" fill="white"/>
<path d="M70.7422 368.768C72.9234 351.641 72.9616 333.572 64.3829 318.63L64.0777 318.819C64.2024 318.193 64.3681 317.577 64.5737 316.973C64.9134 315.911 65.4725 314.93 66.2157 314.093C66.959 313.255 67.8701 312.579 68.8916 312.107C70.0741 311.605 71.368 311.415 72.6474 311.553C73.9267 311.692 75.1479 312.155 76.1921 312.898C78.6722 314.593 78.9393 317.199 79.4416 319.949C82.7993 338.438 83.2954 357.336 83.6833 376.126C79.2153 373.948 74.8928 371.491 70.7422 368.768V368.768Z" fill="#42A4C6"/>
<path d="M247.345 259.024C249.836 259.024 251.854 257.032 251.854 254.573C251.854 252.115 249.836 250.122 247.345 250.122C244.855 250.122 242.837 252.115 242.837 254.573C242.837 257.032 244.855 259.024 247.345 259.024Z" fill="white"/>
<path d="M269.558 255.741L268.833 255.113C262.989 250.36 257.527 245.796 252.21 241.345C240.128 231.268 228.751 221.725 215.187 212.258C214.062 211.487 213.012 210.615 212.051 209.652V206.18C213.367 207.761 214.882 209.168 216.56 210.368C230.201 219.88 241.628 229.423 253.743 239.568C258.748 243.706 263.829 247.994 269.279 252.388C269.355 252.953 269.393 253.525 269.431 254.09C269.469 254.655 269.52 255.176 269.558 255.741Z" fill="#0D223F"/>
<path d="M232.687 312.785C229.285 308.711 223.25 304.937 219.657 303.048L217.4 301.987L217.972 304.404C221.763 320.731 223.51 337.456 223.174 354.203C223.142 354.503 223.129 354.805 223.136 355.107L223.098 355.898C223.098 356.237 223.059 356.614 223.059 356.953C223.021 358.208 222.977 359.521 222.977 360.764C223.391 360.472 223.788 360.158 224.166 359.822C224.586 359.483 224.967 359.144 225.387 358.767C225.387 357.863 225.425 356.915 225.463 356.011L225.501 355.182V354.919C225.536 354.711 225.549 354.501 225.54 354.291C225.869 338.197 224.305 322.119 220.878 306.381C225.272 308.949 230.125 312.66 232.001 315.893L233.336 318.191L234.137 315.679" fill="#0D223F"/>
<path d="M71.925 368.919L69.5975 368.624C71.2827 355.364 72.4973 336.071 63.995 320.281C61.8655 321.797 59.9064 323.534 58.1508 325.461C57.4449 326.183 56.72 326.924 55.9887 327.621L55.658 327.947C54.9978 328.694 54.1014 329.198 53.1143 329.379C51.2446 329.561 49.9919 328.066 49.2987 327.263C42.9394 319.402 35.8552 312.126 30.418 306.664C29.2161 305.465 27.9061 304.284 26.6406 303.142C25.3751 301.999 24.0206 300.787 22.7742 299.538L24.4721 297.887C25.6677 299.092 26.9777 300.273 28.2432 301.409C29.5087 302.545 30.8695 303.77 32.1096 305.019C37.5913 310.519 44.701 317.852 51.1493 325.781C51.7152 326.459 52.3321 327.087 52.8535 327.037C53.1715 327.037 53.5849 326.622 53.9855 326.258L54.3098 325.944C55.022 325.26 55.7025 324.563 56.4274 323.822C58.5705 321.631 60.7899 319.365 63.4608 317.814L63.6325 317.714L63.7342 317.645L64.8026 316.948L65.4385 318.046C74.9393 334.634 73.6929 355.025 71.925 368.919Z" fill="#0D223F"/>
<path d="M196.465 195.294L186.99 62.7976L83.5179 68.0337L90.9583 163.413L91.8804 182.047L89.502 182.166L88.5799 163.557L80.9615 65.8112L189.196 60.3365L198.837 195.131L196.465 195.294Z" fill="#0D223F"/>
<path d="M92.1521 178.751L89.7809 178.932L90.9296 193.604L93.3009 193.423L92.1521 178.751Z" fill="#0D223F"/>
<path d="M211.479 230.879C209.985 241.445 208.077 251.704 206.551 262.195C204.948 272.375 204.098 282.657 204.007 292.958C201.414 289.694 199.13 286.201 197.184 282.524C191.034 271.317 186.831 259.659 177.737 257.166C185.19 246.794 188.967 236.153 192.999 223.709C195.527 215.917 196.986 207.826 197.336 199.651C197.357 199.631 197.37 199.604 197.374 199.576C197.61 195.237 197.686 190.673 197.724 185.462C199.194 185.923 200.556 186.667 201.73 187.653C204.578 190.161 206.857 193.233 208.42 196.669C212.929 206.507 213.082 219.484 211.479 230.879Z" fill="#65BADB"/>
<path d="M205.215 296.248L203.104 293.68C200.455 290.372 198.126 286.826 196.147 283.089C195.002 280.998 193.915 278.889 192.872 276.848C188.287 267.914 184.325 260.198 177.425 258.309L175.791 257.863L176.77 256.494C184.122 246.267 187.823 235.877 191.893 223.351C194.38 215.649 195.811 207.653 196.147 199.576V199.13L196.179 199.092C196.408 194.566 196.465 189.869 196.503 185.45V183.955L197.991 184.357C199.626 184.847 201.141 185.663 202.443 186.755C205.438 189.377 207.842 192.589 209.501 196.185C213.482 204.862 214.589 217.23 212.681 231.042C211.893 236.636 210.97 242.23 210.08 247.642C209.292 252.451 208.471 257.423 207.753 262.358C206.017 274.287 205.241 283.704 205.241 292.94L205.215 296.248ZM179.613 256.57C186.564 259.37 190.665 267.356 194.983 275.787C196.026 277.809 197.101 279.906 198.233 281.965C199.628 284.565 201.178 287.081 202.875 289.499C203.127 280.305 203.96 271.136 205.368 262.044C206.093 257.091 206.913 252.106 207.708 247.284C208.598 241.885 209.514 236.303 210.303 230.735C212.21 217.375 211.129 205.452 207.339 197.165C205.85 193.891 203.684 190.962 200.98 188.564C200.334 188.046 199.64 187.589 198.907 187.201C198.869 191.295 198.792 195.564 198.576 199.645C198.578 199.749 198.561 199.854 198.525 199.952C198.162 208.152 196.697 216.267 194.169 224.086C190.182 236.272 186.557 246.487 179.613 256.57ZM196.191 199.438C196.191 199.475 196.191 199.519 196.191 199.551C196.194 199.519 196.194 199.488 196.191 199.456V199.438Z" fill="#0D223F"/>
<path d="M190.481 257.405C193.175 257.405 195.358 255.249 195.358 252.589C195.358 249.93 193.175 247.774 190.481 247.774C187.787 247.774 185.603 249.93 185.603 252.589C185.603 255.249 187.787 257.405 190.481 257.405Z" fill="white"/>
<path d="M205.832 235.092C207.241 235.092 208.382 233.965 208.382 232.574C208.382 231.184 207.241 230.057 205.832 230.057C204.424 230.057 203.282 231.184 203.282 232.574C203.282 233.965 204.424 235.092 205.832 235.092Z" fill="white"/>
<path d="M129.527 175.624C121.496 175.624 116.421 175.85 108.389 175.856C103.34 175.856 97.2349 176.453 95.0346 180.691C93.2604 184.144 95.3271 188.463 98.6403 190.736C101.953 193.009 106.195 193.668 110.265 194.183C134.053 197.172 158.151 196.8 181.832 193.078C186.284 192.381 191.25 191.194 193.343 187.477C195.842 183.083 192.452 177.344 187.619 175.128C182.786 172.912 177.152 173.213 171.797 173.571C156.459 174.601 145.146 174.519 129.826 175.542L129.527 175.624Z" fill="#EAA197"/>
<path d="M104.847 185.381L185.336 184.05Z" fill="#EAA197"/>
<path d="M185.272 182.498L104.807 183.829L104.86 186.962L185.325 185.631L185.272 182.498Z" fill="#0D223F"/>
<path d="M95.6705 182.951C95.6705 182.951 169.298 177.872 179.963 178.889C190.627 179.906 194.036 185.839 194.036 185.839C194.036 185.839 196.986 176.61 183.282 173.477C169.578 170.344 102.806 176.698 102.806 176.698C102.806 176.698 96.7325 177.96 95.6705 182.951Z" fill="#FFD2C9"/>
<path d="M142.176 197.73C131.449 197.729 120.734 197.058 110.093 195.721C105.826 195.181 101.362 194.465 97.7691 192.01C94.068 189.499 91.3653 184.42 93.6419 179.981C96.2556 174.89 103.308 174.293 108.389 174.293C112.389 174.293 115.715 174.23 118.933 174.174C122.151 174.117 125.362 174.067 129.279 174.061L129.559 173.973H129.743C137.445 173.458 144.23 173.22 150.793 172.987C157.355 172.755 164.096 172.516 171.74 172.002C176.77 171.669 183.021 171.248 188.338 173.703C189.958 174.447 191.412 175.504 192.613 176.811C193.814 178.117 194.739 179.648 195.333 181.312C195.736 182.438 195.894 183.634 195.798 184.824C195.701 186.014 195.352 187.17 194.773 188.218C192.376 192.462 187.034 193.825 182.125 194.597C168.913 196.681 155.555 197.729 142.176 197.73V197.73ZM130.15 177.049L129.769 177.169H129.527C125.527 177.169 122.201 177.225 118.984 177.282C115.766 177.338 112.421 177.395 108.389 177.395C104.147 177.395 98.2969 177.815 96.4718 181.375C95.06 184.125 96.936 187.616 99.5687 189.405C102.577 191.452 106.615 192.098 110.494 192.588C134.129 195.567 158.074 195.197 181.603 191.489C185.762 190.861 190.246 189.75 191.982 186.68C192.343 186.002 192.559 185.258 192.613 184.494C192.668 183.73 192.561 182.963 192.3 182.241C191.845 180.986 191.142 179.833 190.231 178.849C189.321 177.865 188.221 177.07 186.996 176.509C182.424 174.4 176.859 174.77 171.956 175.097C164.262 175.612 157.47 175.85 150.907 176.082C144.344 176.315 137.718 176.572 130.15 177.049Z" fill="#0D223F"/>
</svg>
